<?xml version="1.0" encoding="UTF-8"?>
<svg id="_レイヤー_2" data-name="レイヤー 2" xmlns="http://www.w3.org/2000/svg" viewBox="0 0 164.18 183.87">
  <defs>
    <style>
      .cls-1, .cls-2 {
        stroke-width: 0px;
      }

      .cls-2 {
        fill: none;
      }
    </style>
  </defs>
  <g id="_レイヤー_1-2" data-name="レイヤー 1">
    <g>
      <path class="cls-1" d="M61.83,86.46c-.02-.16-.09-.3-.19-.43-.09-.14-.21-.24-.35-.32-.13-.1-.28-.16-.45-.18-.11,0-.22,0-.33,0-.22.02-.41.1-.59.23-.08.07-.15.14-.23.22-.14.17-.23.37-.27.59l-.03.21c-.03.17-.02.33.03.49.02.16.09.3.19.43.09.14.21.24.35.32.13.1.28.16.45.18.11,0,.22,0,.33,0,.22-.02.41-.1.59-.23.08-.07.15-.14.23-.22.14-.17.23-.37.27-.59l.03-.21c.03-.17.02-.33-.03-.49Z"/>
      <path class="cls-1" d="M99.59,84.46c-.13-.09-.28-.14-.45-.15-.16-.02-.32,0-.47.05-.16.03-.31.1-.44.21-.08.08-.15.16-.23.24-.13.18-.2.37-.23.59,0,.11,0,.21,0,.32.03.22.12.42.26.59l.13.17c.1.14.23.24.38.31.13.09.28.14.45.15.16.02.32,0,.47-.05.16-.03.31-.1.44-.21.08-.08.15-.16.23-.24.13-.18.2-.37.23-.59,0-.11,0-.21,0-.32-.03-.22-.12-.42-.26-.59l-.13-.17c-.1-.14-.23-.24-.38-.31Z"/>
      <path class="cls-1" d="M134.03,123.06c-1.18-22.11-6.09-44.01-14.53-64.49-2.48-6.01-5.27-11.89-8.33-17.62-.36-.68-1.18-1.08-1.88-.56-8.67,6.5-16.04,14.5-21.89,23.6-7.12-.73-14.3-.77-21.44-.13-4.34-9.05-10.45-17.14-17.99-23.77-.17-.15-.36-.23-.54-.27-.29-.27-.61-.51-.96-.68-.15-.08-.32-.11-.48-.1-.16-.02-.32,0-.48.07-.15.05-.29.14-.39.26-.13.1-.22.23-.29.38-.07.18-.1.38-.09.58-.1.1-.2.19-.27.33-9.95,20-16.5,41.68-19.27,63.85-.7,5.6-1.11,11.23-1.33,16.88.09.21.14.43.13.67-.06,1.07-.05,2.15,0,3.23.19.1.41.17.68.14,27.91-2.2,55.98-2.34,83.91-.38,7.81.55,15.61,1.27,23.39,2.14.15.02.28,0,.4-.03.23.02.47.04.7.05.11,0,.21,0,.32-.02.19-1.38.4-2.77.62-4.15ZM33.62,107.62c.08-.67.78-1.13,1.42-1.02.38.06.76.11,1.15.14.11,0,.22.01.33.02,0,0,0,0,0,0,.19,0,.39,0,.58-.01.4-.02.8-.07,1.19-.15.07-.01.15-.02.22-.05.05-.01.11-.03.16-.05.21-.06.41-.13.62-.2.65-.24,1.33.09,1.6.71.27.61-.1,1.38-.71,1.6-1.79.66-3.67.73-5.54.43-.69-.11-1.1-.75-1.02-1.42ZM40.87,114.52c-.78.55-1.66.98-2.56,1.28-.85.28-1.76.49-2.66.5-.7,0-1.26-.38-1.37-1.1-.05-.31.08-.68.28-.92.18-.22.53-.44.82-.44.37,0,.74-.04,1.11-.11.1-.02.19-.04.29-.06.01,0,.04,0,.06-.01.19-.05.38-.11.57-.17.41-.13.81-.29,1.19-.48.04-.02.08-.04.12-.06.02,0,.05-.03.08-.04.04-.02.08-.05.12-.07.17-.1.33-.21.5-.32.56-.4,1.31-.25,1.73.28.41.52.25,1.35-.28,1.73ZM41.87,102.83c-2.63-.42-5.28-.61-7.93-.82-.69-.05-1.1-.8-1.02-1.42.08-.7.78-1.07,1.42-1.02,2.65.2,5.31.4,7.93.82.69.11,1.1.75,1.02,1.42-.08.67-.78,1.13-1.42,1.02ZM52.68,87.91c-2.81-2.12-4.84-5.26-5.61-8.7,2.83-.61,5.66-.48,8.32.23-2.15,2.25-3.1,5.42-2.7,8.47ZM55.67,89.64c-1.47-3.12-.38-7.2,2.36-9.26,4.02,1.79,7.38,5.02,9.24,9.25-3.71,1.52-7.89,1.58-11.6.02ZM84.51,89.96c1.46-2.5,3.46-4.51,5.78-5.98.21,3.1,1.91,5.95,4.43,7.71-3.46.64-7.15.03-10.21-1.73ZM98.02,90.64c-3.3-1.02-5.57-4.58-5.24-7.99,4.03-1.76,8.68-2.06,13.06-.58-1.38,3.76-4.16,6.89-7.81,8.57ZM106.23,98.53c-.28-.64.12-1.32.71-1.6,2.64-1.26,5.6-1.53,8.46-1.99.68-.11,1.27.46,1.37,1.1.11.68-.46,1.26-1.1,1.37-1.38.22-2.76.4-4.13.66-1.23.24-2.46.58-3.7,1.17-.63.3-1.35-.13-1.6-.71ZM108.5,103.67c-.11-.71.47-1.23,1.1-1.37,2.45-.54,5.01-.38,7.48,0,.69.11,1.1.75,1.02,1.42-.08.67-.78,1.13-1.42,1.02-.56-.09-1.13-.17-1.7-.23-.29-.03-.58-.05-.87-.07-.17-.01-.34-.02-.5-.03-.06,0-.07,0-.08,0-.01,0-.03,0-.09,0-1.2-.01-2.39.08-3.56.34-.68.15-1.27-.49-1.37-1.1ZM116.41,111.35c-2.03.16-4-.38-6.02-.46-.69-.03-1.09-.82-1.02-1.42.08-.72.77-1.05,1.42-1.02.93.04,1.85.18,2.78.31.46.06.92.12,1.39.15.12,0,.24.01.36.02,0,0,0,0,0,0,.04,0,.08,0,.12,0,.24,0,.47-.01.71-.03.69-.05,1.26.42,1.37,1.1.1.65-.45,1.31-1.1,1.37Z"/>
    </g>
    <g>
      <path class="cls-1" d="M22.26,156.57v11.99c-.31.12-.71.22-1.22.32-.5.1-1.06.15-1.68.15-1.2,0-2.06-.22-2.58-.67s-.78-1.19-.78-2.23v-29.88c0-.66.18-1.17.55-1.54.37-.37.88-.65,1.53-.84,1.2-.42,2.63-.71,4.29-.87,1.66-.15,3.22-.23,4.69-.23,5.02,0,8.73,1.06,11.15,3.19,2.41,2.12,3.62,5,3.62,8.63s-1.21,6.53-3.62,8.72c-2.41,2.18-6.01,3.27-10.8,3.27h-5.15ZM27.01,151.53c2.66,0,4.76-.58,6.28-1.74,1.52-1.16,2.29-2.9,2.29-5.21s-.72-4.02-2.17-5.1c-1.45-1.08-3.52-1.62-6.23-1.62-.89,0-1.77.04-2.64.12-.87.08-1.65.17-2.34.29v13.26h4.81Z"/>
      <path class="cls-1" d="M58.17,140.76c3.59,0,6.45.78,8.57,2.35,2.12,1.56,3.19,4.02,3.19,7.38v13.49c0,.89-.2,1.57-.61,2.06-.41.48-.96.94-1.65,1.36-1,.58-2.3,1.08-3.88,1.51-1.58.42-3.42.64-5.5.64-3.75,0-6.67-.74-8.77-2.2-2.11-1.47-3.16-3.63-3.16-6.49,0-2.55.82-4.5,2.46-5.85,1.64-1.35,4-2.18,7.09-2.49l8.05-.81v-1.27c0-1.7-.55-2.93-1.65-3.71-1.1-.77-2.63-1.16-4.6-1.16-1.54,0-3.03.21-4.46.64-1.43.43-2.7.91-3.82,1.45-.39-.31-.71-.69-.98-1.13-.27-.44-.41-.94-.41-1.48,0-.66.16-1.2.49-1.62.33-.42.84-.79,1.54-1.1,1.08-.54,2.32-.94,3.71-1.19,1.39-.25,2.86-.38,4.4-.38ZM58.29,164.79c1.35,0,2.53-.13,3.53-.4,1-.27,1.72-.56,2.14-.87v-7.36l-6.31.64c-1.78.19-3.11.59-4,1.19-.89.6-1.33,1.52-1.33,2.75s.48,2.27,1.45,2.98c.96.72,2.47,1.07,4.52,1.07Z"/>
      <path class="cls-1" d="M84.98,163.69c.81.58,1.95.87,3.42.87.66,0,1.35-.1,2.08-.29.73-.19,1.37-.42,1.91-.7.27.31.51.66.72,1.04.21.38.32.85.32,1.39,0,1-.51,1.83-1.54,2.49-1.02.66-2.58.99-4.66.99-2.9,0-5.2-.65-6.92-1.94-1.72-1.29-2.58-3.43-2.58-6.4v-27.04c.27-.08.66-.17,1.16-.29.5-.12,1.04-.17,1.62-.17,1.12,0,1.94.21,2.46.64.52.42.78,1.14.78,2.14v5.73h8.98c.15.23.3.56.43.99.13.43.2.87.2,1.33,0,1.66-.71,2.49-2.14,2.49h-7.47v13.78c0,1.39.41,2.37,1.22,2.95Z"/>
      <path class="cls-1" d="M106.93,163.69c.81.58,1.95.87,3.42.87.66,0,1.35-.1,2.08-.29.73-.19,1.37-.42,1.91-.7.27.31.51.66.72,1.04.21.38.32.85.32,1.39,0,1-.51,1.83-1.54,2.49-1.02.66-2.58.99-4.66.99-2.9,0-5.2-.65-6.92-1.94-1.72-1.29-2.58-3.43-2.58-6.4v-27.04c.27-.08.66-.17,1.16-.29.5-.12,1.04-.17,1.62-.17,1.12,0,1.94.21,2.46.64.52.42.78,1.14.78,2.14v5.73h8.98c.15.23.3.56.43.99.13.43.2.87.2,1.33,0,1.66-.71,2.49-2.14,2.49h-7.47v13.78c0,1.39.41,2.37,1.22,2.95Z"/>
      <path class="cls-1" d="M128.74,162.36c-.97-1.89-2.14-4.57-3.53-8.05-1.39-3.47-2.74-7.41-4.05-11.81.35-.42.81-.78,1.39-1.07.58-.29,1.2-.44,1.85-.44.85,0,1.54.2,2.08.61.54.4.98,1.11,1.33,2.11,1.04,3.13,2.12,6.21,3.24,9.24,1.12,3.03,2.35,6.17,3.71,9.41h.23c.58-1.24,1.17-2.68,1.77-4.34.6-1.66,1.19-3.41,1.77-5.27.58-1.85,1.12-3.74,1.62-5.65.5-1.91.95-3.73,1.33-5.47.38-.19.78-.35,1.19-.46.41-.12.88-.17,1.42-.17.85,0,1.56.2,2.14.61.58.4.87,1.03.87,1.88,0,1-.26,2.54-.78,4.6-.52,2.07-1.21,4.34-2.06,6.83-.85,2.49-1.82,5.01-2.9,7.56-1.08,2.55-2.16,4.81-3.24,6.78-1.93,3.4-3.68,5.98-5.24,7.76-1.56,1.77-3.04,2.66-4.43,2.66-1.08,0-1.94-.3-2.58-.9-.64-.6-1.03-1.34-1.19-2.23.62-.54,1.29-1.2,2.03-1.97.73-.77,1.47-1.6,2.2-2.49.73-.89,1.43-1.81,2.08-2.75.66-.94,1.22-1.86,1.68-2.75-.66-.19-1.29-.57-1.91-1.13-.62-.56-1.29-1.59-2.03-3.1Z"/>
    </g>
    <g>
      <path class="cls-1" d="M40.17,23.9c-.24.21-.53.29-.8.29-.67,0-1.28-.54-1.28-1.12,0-.29.16-.61.53-.88,1.79-1.31,3.58-3.45,4.65-5.29-.19-.75-.43-1.5-.69-2.22-2.3,2.22-2.75,2.27-3.15,2.27-.67,0-1.26-.54-1.26-1.12,0-.32.16-.64.59-.91.94-.59,1.95-1.44,2.89-2.4-.48-.88-1.02-1.68-1.58-2.3-.27-.29-.37-.62-.37-.91,0-.64.53-1.2,1.2-1.2.48,0,1.18.27,2.48,2.43.48-.61.91-1.23,1.23-1.79.21-.37.56-.53.91-.53.64,0,1.28.53,1.28,1.17,0,.32-.13.88-2.35,3.36,1.18,2.86,1.87,6.39,1.87,9.56,0,6.33-2.38,8.04-5.13,8.04-2.08,0-2.46-.56-2.46-1.39,0-.61.37-1.28,1.07-1.28.11,0,.21.03.32.05.37.11.72.16,1.04.16.99,0,1.71-.51,2.14-1.66.43-1.23.64-2.64.64-4.19,0-.72-.05-1.44-.13-2.19-1.07,1.47-2.38,2.96-3.63,4.03ZM57.75,13.37v2.11c0,.75-.64,1.12-1.28,1.12-.59,0-1.18-.35-1.18-1.04v-2.22h-2.43v2.14c0,.75-.64,1.12-1.28,1.12-.59,0-1.18-.35-1.18-1.04v-2.19l-2.4.03h-.03c-.77,0-1.18-.59-1.18-1.17s.37-1.18,1.18-1.18h.03l2.4.03v-2.33c0-.72.61-1.07,1.23-1.07s1.23.35,1.23,1.07v2.35h2.43v-2.35c0-.72.61-1.07,1.23-1.07s1.23.35,1.23,1.07v2.33l2.99-.03c.77,0,1.15.59,1.15,1.18s-.37,1.17-1.15,1.17l-2.99-.03ZM57.67,30.49c-1.17.05-2.27.08-3.37.08-1.26,0-2.46-.03-3.66-.08-1.95-.08-2.91-1.15-2.96-2.7-.05-1.18-.08-2.48-.08-3.77s.03-2.62.08-3.77c.05-1.28.85-2.59,2.99-2.67,1.12-.05,2.24-.05,3.39-.05s2.35,0,3.61.05c1.87.05,2.97,1.28,3.02,2.64.05,1.34.08,2.75.08,4.19,0,1.12-.03,2.27-.08,3.34-.08,1.47-1.23,2.64-3.02,2.73ZM52.86,19.65c-.56,0-1.1,0-1.6.03-1.31.03-1.31.8-1.31,3.15h2.91v-3.18ZM52.86,24.94h-2.91c0,.77.03,1.55.05,2.32.05,1.15.88,1.15,2.86,1.15v-3.47ZM58.33,22.83c0-.69,0-1.36-.03-2.03-.05-1.15-.69-1.15-3.05-1.15v3.18h3.07ZM55.26,24.94v3.47c2.32,0,3.02,0,3.05-1.17.03-.75.03-1.52.03-2.3h-3.07Z"/>
      <path class="cls-1" d="M77.41,17.81c-1.36,4.67-4.19,9.35-9.3,11.99-1.76.91-3.53-1.31-1.34-2.43,3.85-1.95,6.38-5.47,7.77-9.19l-1.9.27c-1.28.16-2.35.35-3.37.35-2.24,0-2-2.64-.27-2.56,1.01.05,2.16-.11,3.36-.21,1.02-.08,1.98-.22,2.91-.32.13-.61.24-1.2.32-1.79.19-1.31,0-2.14.03-2.81.08-1.74,2.72-1.52,2.8.05.03.64-.05,1.44-.19,2.56-.08.53-.16,1.09-.27,1.66.8-.11,1.6-.21,2.4-.29,2.03-.21,3.63,1.09,3.39,3.26-.29,2.64-.91,6.49-2.19,8.47-1.87,2.89-5.05,3.79-7.37,1.39-1.26-1.28.48-3.71,1.9-2.16,1.02,1.1,2.03.67,3.05-.64,1.15-1.47,1.71-5.32,1.87-6.68.08-.64-.08-1.39-1.28-1.23l-2.35.32Z"/>
      <path class="cls-1" d="M92.06,27.05c5.61-2.03,9.88-7.8,11.38-11.65.19-.45-.13-.64-.48-.61-2.06.11-5.61.69-7.45.91-1.63.19-1.79.35-3.37.29-1.98-.08-2.19-2.99.19-2.86,1.18.05,2.16-.05,3.29-.13,2.24-.16,5.88-.75,8.87-.94,2.24-.13,3.29,1.34,2.49,2.96-2.81,5.72-6.23,11.59-13.7,14.67-2.59,1.07-3.53-1.79-1.2-2.64Z"/>
      <path class="cls-1" d="M119.21,21.28c.27.8,0,2.75-.21,4.01,1.2-.08,2.43-.16,3.63-.24.61-.05,1.23-.05,1.84,0,.99.11,1.58.83,1.39,1.55-.19.72-1.07,1.04-1.98.85-.51-.11-1.02-.13-1.52-.13s-1.04.03-1.58.03c-2.16,0-4.73.29-6.25.45-1.55.16-2.32.29-2.89.29-1.71-.03-1.76-2.38.16-2.33.69.03,1.84-.03,2.56-.11.78-.08,1.58-.19,2.35-.24.16-.99.27-2.11.24-2.51-.03-.61-.08-.88-.13-1.31v-.19l-.37.03c-.88.08-1.55.21-2.4.16-1.55-.08-1.71-2.3.16-2.24.67.03,1.12.03,1.82-.03.91-.05,2.67-.22,3.82-.37.64-.08,1.26-.29,1.9-.27,1.66.05,1.98,2.14-.05,2.3-.64.05-1.12.08-1.76.16-.24.03-.48.05-.75.08l.03.05Z"/>
    </g>
    <polygon class="cls-2" points="163.23 183.87 0 183.87 .95 0 164.18 0 163.23 183.87"/>
  </g>
</svg>